<svg width="16" height="16" viewBox="0 0 16 16" fill="none" xmlns="http://www.w3.org/2000/svg">
<path d="M10.8202 1.62483C10.8803 1.56119 10.9273 1.48631 10.9586 1.4045C10.9898 1.32268 11.0046 1.23551 11.0021 1.14798C10.9996 1.06044 10.9799 0.974252 10.9441 0.894328C10.9083 0.814404 10.8572 0.742311 10.7935 0.682166C10.7299 0.622021 10.655 0.575 10.5732 0.54379C10.4914 0.51258 10.4042 0.49779 10.3167 0.500267C10.2291 0.502743 10.1429 0.522436 10.063 0.558222C9.98309 0.594008 9.91099 0.645185 9.85085 0.708833L4.18418 6.70883C4.06716 6.83261 4.00195 6.99649 4.00195 7.16683C4.00195 7.33717 4.06716 7.50105 4.18418 7.62483L9.85085 13.6255C9.9106 13.6905 9.98267 13.7431 10.0629 13.78C10.1431 13.817 10.2299 13.8376 10.3181 13.8407C10.4064 13.8439 10.4944 13.8294 10.577 13.7983C10.6597 13.7671 10.7353 13.7198 10.7995 13.6592C10.8637 13.5986 10.9153 13.5258 10.9511 13.4451C10.9869 13.3643 11.0064 13.2773 11.0083 13.189C11.0102 13.1007 10.9946 13.0129 10.9623 12.9307C10.93 12.8485 10.8817 12.7735 10.8202 12.7102L5.58552 7.16683L10.8202 1.62483Z" fill="white"/>
</svg>
