<svg width="34" height="34" viewBox="0 0 34 34" fill="none" xmlns="http://www.w3.org/2000/svg">
<path d="M26.6345 7.36665C24.7962 6.50971 22.8059 5.88774 20.7327 5.52838C20.7145 5.5278 20.6964 5.53121 20.6797 5.53838C20.663 5.54554 20.648 5.55628 20.6359 5.56985C20.3871 6.02596 20.0969 6.62028 19.9034 7.07639C17.7044 6.74468 15.4681 6.74468 13.2691 7.07639C13.0756 6.60646 12.7853 6.02596 12.5227 5.56985C12.5089 5.54221 12.4674 5.52838 12.4259 5.52838C10.3527 5.88774 8.37625 6.50971 6.52416 7.36665C6.51034 7.36665 6.49652 7.38047 6.4827 7.39429C2.72325 13.0196 1.68663 18.493 2.19803 23.911C2.19803 23.9386 2.21185 23.9663 2.23949 23.9801C4.72737 25.8045 7.11849 26.9103 9.48197 27.6428C9.52343 27.6566 9.5649 27.6428 9.57872 27.6152C10.1316 26.855 10.6292 26.0533 11.0576 25.2102C11.0853 25.1549 11.0576 25.0996 11.0023 25.0858C10.2145 24.7818 9.46815 24.4224 8.7356 24.0078C8.68032 23.9801 8.68032 23.8972 8.72178 23.8557C8.87382 23.7451 9.02586 23.6207 9.17789 23.5102C9.20554 23.4825 9.247 23.4825 9.27464 23.4964C14.0292 25.6663 19.157 25.6663 23.8563 23.4964C23.884 23.4825 23.9254 23.4825 23.9531 23.5102C24.1051 23.6346 24.2572 23.7451 24.4092 23.8695C24.4645 23.911 24.4645 23.9939 24.3954 24.0216C23.6767 24.45 22.9165 24.7956 22.1287 25.0997C22.0734 25.1135 22.0595 25.1826 22.0734 25.224C22.5157 26.0672 23.0132 26.8688 23.5523 27.629C23.5937 27.6428 23.6352 27.6566 23.6767 27.6428C26.054 26.9103 28.4451 25.8045 30.933 23.9801C30.9606 23.9663 30.9744 23.9386 30.9744 23.911C31.5826 17.6499 29.9654 12.218 26.6898 7.39429C26.6759 7.38047 26.6621 7.36665 26.6345 7.36665ZM11.7763 20.6077C10.3527 20.6077 9.16407 19.2946 9.16407 17.6775C9.16407 16.0604 10.3251 14.7473 11.7763 14.7473C13.2414 14.7473 14.4024 16.0742 14.3886 17.6775C14.3886 19.2946 13.2276 20.6077 11.7763 20.6077ZM21.4099 20.6077C19.9863 20.6077 18.7977 19.2946 18.7977 17.6775C18.7977 16.0604 19.9587 14.7473 21.4099 14.7473C22.875 14.7473 24.036 16.0742 24.0222 17.6775C24.0222 19.2946 22.875 20.6077 21.4099 20.6077Z" fill="#293241"/>
</svg>
