<svg width="34" height="34" viewBox="0 0 34 34" fill="none" xmlns="http://www.w3.org/2000/svg">
<g clip-path="url(#clip0_32_278)">
<g filter="url(#filter0_d_32_278)">
<path d="M16.5862 2.76416C14.7711 2.76416 12.9738 3.12166 11.2969 3.81626C9.62 4.51086 8.09632 5.52894 6.81288 6.81239C4.22084 9.40443 2.76465 12.92 2.76465 16.5857C2.76465 22.6948 6.73142 27.8779 12.2186 29.7161C12.9096 29.8267 13.1308 29.3982 13.1308 29.025V26.6892C9.30223 27.5185 8.48676 24.8371 8.48676 24.8371C7.85097 23.2338 6.95257 22.8054 6.95257 22.8054C5.69481 21.9484 7.04932 21.9761 7.04932 21.9761C8.43147 22.0728 9.16401 23.3997 9.16401 23.3997C10.3665 25.5006 12.3982 24.8786 13.1861 24.5469C13.3105 23.6485 13.6698 23.0403 14.0568 22.6948C10.9885 22.3492 7.76804 21.1606 7.76804 15.8946C7.76804 14.3604 8.29326 13.1303 9.19165 12.149C9.05344 11.8034 8.56969 10.366 9.32987 8.50009C9.32987 8.50009 10.4909 8.12691 13.1308 9.90988C14.2227 9.60581 15.4113 9.45377 16.5862 9.45377C17.761 9.45377 18.9496 9.60581 20.0415 9.90988C22.6815 8.12691 23.8425 8.50009 23.8425 8.50009C24.6026 10.366 24.1189 11.8034 23.9807 12.149C24.8791 13.1303 25.4043 14.3604 25.4043 15.8946C25.4043 21.1744 22.1701 22.3354 19.0879 22.681C19.5854 23.1094 20.0415 23.9525 20.0415 25.2379V29.025C20.0415 29.3982 20.2627 29.8405 20.9676 29.7161C26.4547 27.864 30.4077 22.6948 30.4077 16.5857C30.4077 14.7706 30.0502 12.9733 29.3556 11.2964C28.661 9.61951 27.6429 8.09583 26.3595 6.81239C25.076 5.52894 23.5523 4.51086 21.8754 3.81626C20.1985 3.12166 18.4012 2.76416 16.5862 2.76416Z" fill="url(#paint0_radial_32_278)"/>
</g>
</g>
<defs>
<filter id="filter0_d_32_278" x="-63.2354" y="-63.2358" width="167.643" height="166.973" filterUnits="userSpaceOnUse" color-interpolation-filters="sRGB">
<feFlood flood-opacity="0" result="BackgroundImageFix"/>
<feColorMatrix in="SourceAlpha" type="matrix" values="0 0 0 0 0 0 0 0 0 0 0 0 0 0 0 0 0 0 127 0" result="hardAlpha"/>
<feOffset dx="4" dy="4"/>
<feGaussianBlur stdDeviation="35"/>
<feComposite in2="hardAlpha" operator="out"/>
<feColorMatrix type="matrix" values="0 0 0 0 0 0 0 0 0 0 0 0 0 0 0 0 0 0 0.1 0"/>
<feBlend mode="normal" in2="BackgroundImageFix" result="effect1_dropShadow_32_278"/>
<feBlend mode="normal" in="SourceGraphic" in2="effect1_dropShadow_32_278" result="shape"/>
</filter>
<radialGradient id="paint0_radial_32_278" cx="0" cy="0" r="1" gradientUnits="userSpaceOnUse" gradientTransform="translate(6.12775 4.64013) rotate(26.0759) scale(35.296 51.5885)">
<stop stop-color="#FF9379"/>
<stop offset="1" stop-color="#EE6C4D"/>
</radialGradient>
<clipPath id="clip0_32_278">
<rect width="33.1716" height="33.1716" fill="white"/>
</clipPath>
</defs>
</svg>
