<svg width="16" height="16" viewBox="0 0 16 16" fill="none" xmlns="http://www.w3.org/2000/svg">
<path d="M4.18958 12.7162C4.12944 12.7799 4.08242 12.8547 4.05121 12.9366C4.02 13.0184 4.00521 13.1056 4.00768 13.1931C4.01016 13.2806 4.02985 13.3668 4.06564 13.4467C4.10143 13.5267 4.1526 13.5988 4.21625 13.6589C4.2799 13.719 4.35477 13.7661 4.43659 13.7973C4.51841 13.8285 4.60557 13.8433 4.69311 13.8408C4.78064 13.8383 4.86683 13.8186 4.94675 13.7828C5.02668 13.7471 5.09877 13.6959 5.15892 13.6322L10.8256 7.63223C10.9426 7.50845 11.0078 7.34457 11.0078 7.17423C11.0078 7.00389 10.9426 6.84001 10.8256 6.71623L5.15892 0.715566C5.09917 0.650526 5.02709 0.598003 4.94687 0.561054C4.86666 0.524104 4.7799 0.503462 4.69163 0.500327C4.60337 0.497191 4.51536 0.511624 4.43273 0.542788C4.35009 0.573951 4.27447 0.621224 4.21025 0.68186C4.14604 0.742497 4.09451 0.815288 4.05867 0.896006C4.02283 0.976724 4.00338 1.06376 4.00145 1.15206C3.99953 1.24035 4.01517 1.32815 4.04747 1.41036C4.07976 1.49256 4.12807 1.56752 4.18958 1.6309L9.42425 7.17423L4.18958 12.7162Z" fill="white"/>
</svg>
