<svg width="27" height="51" viewBox="0 0 27 51" fill="none" xmlns="http://www.w3.org/2000/svg">
<path d="M25.8169 46.7825C26.0424 47.0212 26.2187 47.3019 26.3358 47.6088C26.4528 47.9156 26.5083 48.2425 26.499 48.5707C26.4897 48.899 26.4159 49.2222 26.2817 49.5219C26.1475 49.8216 25.9555 50.092 25.7169 50.3175C25.4782 50.543 25.1974 50.7194 24.8906 50.8364C24.5838 50.9535 24.2569 51.0089 23.9287 50.9996C23.6004 50.9903 23.2772 50.9165 22.9775 50.7823C22.6778 50.6481 22.4074 50.4562 22.1819 50.2175L0.931869 27.7175C0.493029 27.2533 0.248509 26.6388 0.248509 26C0.248509 25.3612 0.493028 24.7467 0.931869 24.2825L22.1819 1.78C22.4059 1.5361 22.6762 1.33914 22.977 1.20058C23.2778 1.06202 23.6032 0.984614 23.9342 0.972855C24.2652 0.961095 24.5952 1.01522 24.9051 1.13208C25.215 1.24895 25.4986 1.42622 25.7394 1.65361C25.9802 1.88099 26.1734 2.15396 26.3078 2.45665C26.4422 2.75934 26.5151 3.08573 26.5224 3.41685C26.5296 3.74796 26.4709 4.07721 26.3498 4.38547C26.2287 4.69373 26.0475 4.97484 25.8169 5.2125L6.18687 26L25.8169 46.7825Z" fill="#C7C7C7"/>
</svg>
