<svg width="27" height="51" viewBox="0 0 27 51" fill="none" xmlns="http://www.w3.org/2000/svg">
<path d="M1.18264 46.7825C0.957098 47.0212 0.780774 47.3019 0.663735 47.6088C0.546696 47.9156 0.491235 48.2425 0.50052 48.5707C0.509806 48.899 0.583656 49.2222 0.717853 49.5219C0.85205 49.8216 1.04397 50.092 1.28264 50.3175C1.52132 50.543 1.80209 50.7194 2.10891 50.8364C2.41573 50.9535 2.7426 51.0089 3.07085 50.9996C3.39911 50.9903 3.72232 50.9165 4.02204 50.7823C4.32175 50.6481 4.5921 50.4562 4.81764 50.2175L26.0676 27.7175C26.5065 27.2533 26.751 26.6388 26.751 26C26.751 25.3612 26.5065 24.7467 26.0676 24.2825L4.81765 1.78C4.59359 1.5361 4.3233 1.33914 4.02249 1.20058C3.72167 1.06202 3.39632 0.984614 3.06533 0.972855C2.73435 0.961095 2.40432 1.01522 2.09443 1.13208C1.78454 1.24895 1.50096 1.42622 1.26015 1.65361C1.01935 1.88099 0.826133 2.15396 0.691717 2.45665C0.557302 2.75934 0.484371 3.08573 0.477159 3.41685C0.469948 3.74796 0.5286 4.07721 0.64971 4.38547C0.77082 4.69373 0.951973 4.97484 1.18265 5.2125L20.8126 26L1.18264 46.7825Z" fill="#C7C7C7"/>
</svg>
