<svg width="31" height="32" viewBox="0 0 31 32" fill="none" xmlns="http://www.w3.org/2000/svg">
<path d="M6.47634 3.73877C5.76415 3.73877 5.08112 4.02169 4.57753 4.52528C4.07393 5.02888 3.79102 5.7119 3.79102 6.42409C3.79102 7.13628 4.07393 7.81931 4.57753 8.3229C5.08112 8.8265 5.76415 9.10942 6.47634 9.10942C7.18853 9.10942 7.87155 8.8265 8.37515 8.3229C8.87874 7.81931 9.16166 7.13628 9.16166 6.42409C9.16166 5.7119 8.87874 5.02888 8.37515 4.52528C7.87155 4.02169 7.18853 3.73877 6.47634 3.73877ZM3.94898 11.3209C3.90708 11.3209 3.8669 11.3375 3.83728 11.3671C3.80766 11.3967 3.79102 11.4369 3.79102 11.4788V27.9067C3.79102 27.9939 3.86178 28.0646 3.94898 28.0646H9.0037C9.0456 28.0646 9.08577 28.048 9.1154 28.0184C9.14502 27.9887 9.16166 27.9486 9.16166 27.9067V11.4788C9.16166 11.4369 9.14502 11.3967 9.1154 11.3671C9.08577 11.3375 9.0456 11.3209 9.0037 11.3209H3.94898ZM12.1629 11.3209C12.121 11.3209 12.0808 11.3375 12.0512 11.3671C12.0216 11.3967 12.0049 11.4369 12.0049 11.4788V27.9067C12.0049 27.9939 12.0757 28.0646 12.1629 28.0646H17.2176C17.2595 28.0646 17.2997 28.048 17.3293 28.0184C17.3589 27.9887 17.3756 27.9486 17.3756 27.9067V19.0609C17.3756 18.4325 17.6252 17.8298 18.0696 17.3855C18.5139 16.9411 19.1166 16.6915 19.745 16.6915C20.3734 16.6915 20.9761 16.9411 21.4204 17.3855C21.8648 17.8298 22.1144 18.4325 22.1144 19.0609V27.9067C22.1144 27.9939 22.1852 28.0646 22.2724 28.0646H27.3271C27.369 28.0646 27.4092 28.048 27.4388 28.0184C27.4684 27.9887 27.485 27.9486 27.485 27.9067V17.0137C27.485 13.9468 24.8187 11.5483 21.7669 11.8251C20.8226 11.911 19.8977 12.1447 19.026 12.5176L17.3756 13.2252V11.4788C17.3756 11.4369 17.3589 11.3967 17.3293 11.3671C17.2997 11.3375 17.2595 11.3209 17.2176 11.3209H12.1629Z" fill="#293241"/>
</svg>
