<svg width="34" height="34" viewBox="0 0 34 34" fill="none" xmlns="http://www.w3.org/2000/svg">
<path d="M18.0068 2.76586C19.0154 2.76199 20.024 2.77213 21.0324 2.79627L21.3005 2.80594C21.6101 2.817 21.9156 2.83082 22.2846 2.84741C23.7552 2.91652 24.7586 3.14872 25.6391 3.49011C26.5513 3.84117 27.3198 4.31663 28.0883 5.08511C28.7909 5.77564 29.3347 6.61093 29.6819 7.5329C30.0233 8.41333 30.2555 9.41816 30.3246 10.8888C30.3412 11.2564 30.355 11.5633 30.366 11.8729L30.3743 12.141C30.3989 13.1488 30.4095 14.157 30.4061 15.1651L30.4075 16.1962V18.0068C30.4109 19.0155 30.4003 20.0241 30.3757 21.0324L30.3674 21.3005C30.3564 21.6101 30.3425 21.9156 30.326 22.2846C30.2568 23.7552 30.0219 24.7587 29.6819 25.6391C29.3358 26.562 28.7919 27.398 28.0883 28.0883C27.3971 28.7908 26.5614 29.3346 25.6391 29.6819C24.7586 30.0233 23.7552 30.2555 22.2846 30.3246C21.9156 30.3412 21.6101 30.355 21.3005 30.366L21.0324 30.3743C20.0241 30.3989 19.0154 30.4095 18.0068 30.4061L16.9757 30.4075H15.1665C14.1579 30.4109 13.1493 30.4003 12.141 30.3757L11.8728 30.3674C11.5447 30.3555 11.2167 30.3417 10.8888 30.326C9.41815 30.2569 8.4147 30.0219 7.53289 29.6819C6.61056 29.3354 5.77512 28.7915 5.0851 28.0883C4.38165 27.3976 3.83733 26.5618 3.4901 25.6391C3.14871 24.7587 2.91651 23.7552 2.8474 22.2846C2.83201 21.9566 2.81818 21.6286 2.80593 21.3005L2.79902 21.0324C2.77354 20.0241 2.76202 19.0155 2.76447 18.0068V15.1651C2.76061 14.157 2.77075 13.1489 2.79488 12.141L2.80455 11.8729C2.81561 11.5633 2.82943 11.2564 2.84602 10.8888C2.91512 9.41677 3.14733 8.41471 3.48872 7.5329C3.83615 6.61048 4.38154 5.77542 5.08648 5.08649C5.77603 4.38264 6.61094 3.83782 7.53289 3.49011C8.4147 3.14872 9.41676 2.91652 10.8888 2.84741L11.8728 2.80594L12.141 2.79903C13.1488 2.77356 14.157 2.76204 15.1651 2.76448L18.0068 2.76586ZM16.586 9.67662C15.6703 9.66367 14.7612 9.83283 13.9115 10.1743C13.0618 10.5157 12.2884 11.0227 11.6363 11.6656C10.9842 12.3086 10.4664 13.0747 10.1129 13.9195C9.7595 14.7643 9.5775 15.6709 9.5775 16.5867C9.5775 17.5024 9.7595 18.4091 10.1129 19.2539C10.4664 20.0987 10.9842 20.8648 11.6363 21.5078C12.2884 22.1507 13.0618 22.6576 13.9115 22.9991C14.7612 23.3405 15.6703 23.5097 16.586 23.4968C18.4188 23.4968 20.1766 22.7687 21.4726 21.4726C22.7686 20.1766 23.4967 18.4188 23.4967 16.586C23.4967 14.7531 22.7686 12.9954 21.4726 11.6994C20.1766 10.4033 18.4188 9.67662 16.586 9.67662ZM16.586 12.4409C17.1368 12.4308 17.6841 12.5305 18.1959 12.7342C18.7077 12.938 19.1738 13.2417 19.567 13.6276C19.9601 14.0135 20.2724 14.4738 20.4856 14.9818C20.6989 15.4897 20.8087 16.0351 20.8088 16.586C20.8089 17.1369 20.6992 17.6823 20.4862 18.1903C20.2731 18.6983 19.961 19.1588 19.568 19.5448C19.175 19.9308 18.709 20.2347 18.1972 20.4386C17.6854 20.6425 17.1382 20.7424 16.5874 20.7325C15.4877 20.7325 14.433 20.2956 13.6554 19.518C12.8778 18.7404 12.4409 17.6857 12.4409 16.586C12.4409 15.4863 12.8778 14.4316 13.6554 13.654C14.433 12.8764 15.4877 12.4395 16.5874 12.4395L16.586 12.4409ZM23.8423 7.60339C23.3964 7.62124 22.9747 7.81092 22.6655 8.13272C22.3564 8.45451 22.1837 8.88345 22.1837 9.3297C22.1837 9.77595 22.3564 10.2049 22.6655 10.5267C22.9747 10.8485 23.3964 11.0382 23.8423 11.056C24.3005 11.056 24.7399 10.874 25.0639 10.55C25.3879 10.226 25.57 9.78653 25.57 9.32832C25.57 8.8701 25.3879 8.43066 25.0639 8.10666C24.7399 7.78265 24.3005 7.60063 23.8423 7.60063V7.60339Z" fill="#646464"/>
</svg>
